<mxfile host="Electron" modified="2024-03-25T03:12:25.310Z" agent="Mozilla/5.0 (Windows NT 10.0; Win64; x64) AppleWebKit/537.36 (KHTML, like Gecko) draw.io/21.2.8 Chrome/112.0.5615.165 Electron/24.2.0 Safari/537.36" etag="i6W67opU8OyfgVd-X8nk" version="21.2.8" type="device" pages="3">
  <diagram name="Page-1" id="fsjDqacRQV7oY880uKDh">
    <mxGraphModel dx="1414" dy="1000" grid="1" gridSize="10" guides="1" tooltips="1" connect="1" arrows="1" fold="1" page="0" pageScale="1" pageWidth="850" pageHeight="1100" math="0" shadow="0">
      <root>
        <mxCell id="0" />
        <mxCell id="1" parent="0" />
        <mxCell id="njJQ0EzZRr9ED-4JYnl1-1" value="Engine" style="rounded=1;whiteSpace=wrap;html=1;fontFamily=Montserrat;fontSource=https%3A%2F%2Ffonts.googleapis.com%2Fcss%3Ffamily%3DMontserrat;absoluteArcSize=1;arcSize=8;fillColor=#f8cecc;strokeColor=#b85450;" parent="1" vertex="1">
          <mxGeometry x="-50" y="220" width="100" height="450" as="geometry" />
        </mxCell>
        <mxCell id="njJQ0EzZRr9ED-4JYnl1-2" value="AssetManager" style="rounded=1;whiteSpace=wrap;html=1;fontFamily=Montserrat;fontSource=https%3A%2F%2Ffonts.googleapis.com%2Fcss%3Ffamily%3DMontserrat;absoluteArcSize=1;arcSize=8;fillColor=#ffe6cc;strokeColor=#d79b00;" parent="1" vertex="1">
          <mxGeometry x="450" y="780" width="310" height="30" as="geometry" />
        </mxCell>
        <mxCell id="njJQ0EzZRr9ED-4JYnl1-4" value="InputManager" style="rounded=1;whiteSpace=wrap;html=1;fontFamily=Montserrat;fontSource=https%3A%2F%2Ffonts.googleapis.com%2Fcss%3Ffamily%3DMontserrat;absoluteArcSize=1;arcSize=8;fillColor=#ffe6cc;strokeColor=#d79b00;" parent="1" vertex="1">
          <mxGeometry x="100" y="220" width="310" height="70" as="geometry" />
        </mxCell>
        <mxCell id="njJQ0EzZRr9ED-4JYnl1-5" value="PhysicsManager" style="rounded=1;whiteSpace=wrap;html=1;fontFamily=Montserrat;fontSource=https%3A%2F%2Ffonts.googleapis.com%2Fcss%3Ffamily%3DMontserrat;absoluteArcSize=1;arcSize=8;fillColor=#ffe6cc;strokeColor=#d79b00;" parent="1" vertex="1">
          <mxGeometry x="450" y="740" width="310" height="30" as="geometry" />
        </mxCell>
        <mxCell id="njJQ0EzZRr9ED-4JYnl1-6" value="SoundManager" style="rounded=1;whiteSpace=wrap;html=1;fontFamily=Montserrat;fontSource=https%3A%2F%2Ffonts.googleapis.com%2Fcss%3Ffamily%3DMontserrat;absoluteArcSize=1;arcSize=8;fillColor=#ffe6cc;strokeColor=#d79b00;" parent="1" vertex="1">
          <mxGeometry x="450" y="820" width="310" height="30" as="geometry" />
        </mxCell>
        <mxCell id="cY_B4P1_SqbaMyudtBFb-4" value="Keyboard" style="rounded=1;whiteSpace=wrap;html=1;fontFamily=Montserrat;fontSource=https%3A%2F%2Ffonts.googleapis.com%2Fcss%3Ffamily%3DMontserrat;absoluteArcSize=1;arcSize=8;fillColor=#dae8fc;strokeColor=#6c8ebf;" parent="1" vertex="1">
          <mxGeometry x="420" y="220" width="150" height="30" as="geometry" />
        </mxCell>
        <mxCell id="cY_B4P1_SqbaMyudtBFb-5" value="Mouse" style="rounded=1;whiteSpace=wrap;html=1;fontFamily=Montserrat;fontSource=https%3A%2F%2Ffonts.googleapis.com%2Fcss%3Ffamily%3DMontserrat;absoluteArcSize=1;arcSize=8;fillColor=#dae8fc;strokeColor=#6c8ebf;" parent="1" vertex="1">
          <mxGeometry x="420" y="260" width="150" height="30" as="geometry" />
        </mxCell>
        <mxCell id="FNdyg-D8nHnKbVSnXUow-1" value="UIManager" style="rounded=1;whiteSpace=wrap;html=1;fontFamily=Montserrat;fontSource=https%3A%2F%2Ffonts.googleapis.com%2Fcss%3Ffamily%3DMontserrat;absoluteArcSize=1;arcSize=8;fillColor=#ffe6cc;strokeColor=#d79b00;" parent="1" vertex="1">
          <mxGeometry x="100" y="350" width="310" height="30" as="geometry" />
        </mxCell>
        <mxCell id="Y2bQKwDbrt6NW2d38lL3-1" value="Engine" style="rounded=1;whiteSpace=wrap;html=1;fontFamily=Montserrat;fontSource=https%3A%2F%2Ffonts.googleapis.com%2Fcss%3Ffamily%3DMontserrat;absoluteArcSize=1;arcSize=8;fillColor=#f8cecc;strokeColor=#b85450;" vertex="1" parent="1">
          <mxGeometry x="340" y="1250" width="100" height="250" as="geometry" />
        </mxCell>
        <mxCell id="Y2bQKwDbrt6NW2d38lL3-2" value="Window&lt;br&gt;Manager" style="rounded=1;whiteSpace=wrap;html=1;fontFamily=Montserrat;fontSource=https%3A%2F%2Ffonts.googleapis.com%2Fcss%3Ffamily%3DMontserrat;absoluteArcSize=1;arcSize=8;fillColor=#ffe6cc;strokeColor=#d79b00;" vertex="1" parent="1">
          <mxGeometry x="450" y="1370" width="100" height="130" as="geometry" />
        </mxCell>
        <mxCell id="Y2bQKwDbrt6NW2d38lL3-3" value="Window" style="rounded=1;whiteSpace=wrap;html=1;fontFamily=Montserrat;fontSource=https%3A%2F%2Ffonts.googleapis.com%2Fcss%3Ffamily%3DMontserrat;absoluteArcSize=1;arcSize=8;fillColor=#d5e8d4;strokeColor=#82b366;" vertex="1" parent="1">
          <mxGeometry x="560" y="1370" width="100" height="130" as="geometry" />
        </mxCell>
        <mxCell id="Y2bQKwDbrt6NW2d38lL3-4" value="Screen" style="rounded=1;whiteSpace=wrap;html=1;fontFamily=Montserrat;fontSource=https%3A%2F%2Ffonts.googleapis.com%2Fcss%3Ffamily%3DMontserrat;absoluteArcSize=1;arcSize=8;fillColor=#dae8fc;strokeColor=#6c8ebf;" vertex="1" parent="1">
          <mxGeometry x="670" y="1370" width="100" height="70" as="geometry" />
        </mxCell>
        <mxCell id="Y2bQKwDbrt6NW2d38lL3-5" value="Frame&lt;br&gt;Manager" style="rounded=1;whiteSpace=wrap;html=1;fontFamily=Montserrat;fontSource=https%3A%2F%2Ffonts.googleapis.com%2Fcss%3Ffamily%3DMontserrat;absoluteArcSize=1;arcSize=8;fillColor=#dae8fc;strokeColor=#6c8ebf;" vertex="1" parent="1">
          <mxGeometry x="670" y="1450" width="100" height="50" as="geometry" />
        </mxCell>
        <mxCell id="Y2bQKwDbrt6NW2d38lL3-14" value="&amp;nbsp;vao&amp;nbsp;" style="edgeStyle=elbowEdgeStyle;shape=connector;rounded=0;orthogonalLoop=1;jettySize=auto;elbow=vertical;html=1;labelBackgroundColor=default;strokeColor=default;fontFamily=Montserrat;fontSource=https%3A%2F%2Ffonts.googleapis.com%2Fcss%3Ffamily%3DMontserrat;fontSize=11;fontColor=default;endArrow=classic;" edge="1" parent="1" source="Y2bQKwDbrt6NW2d38lL3-6" target="Y2bQKwDbrt6NW2d38lL3-9">
          <mxGeometry relative="1" as="geometry" />
        </mxCell>
        <mxCell id="Y2bQKwDbrt6NW2d38lL3-6" value="RenderObject" style="rounded=1;whiteSpace=wrap;html=1;fontFamily=Montserrat;fontSource=https%3A%2F%2Ffonts.googleapis.com%2Fcss%3Ffamily%3DMontserrat;absoluteArcSize=1;arcSize=8;fillColor=#e1d5e7;strokeColor=#9673a6;" vertex="1" parent="1">
          <mxGeometry x="780" y="1370" width="100" height="70" as="geometry" />
        </mxCell>
        <mxCell id="Y2bQKwDbrt6NW2d38lL3-12" value="&amp;nbsp;screen&amp;nbsp;" style="edgeStyle=elbowEdgeStyle;rounded=0;orthogonalLoop=1;jettySize=auto;html=1;fontFamily=Montserrat;fontSource=https%3A%2F%2Ffonts.googleapis.com%2Fcss%3Ffamily%3DMontserrat;elbow=vertical;" edge="1" parent="1" source="Y2bQKwDbrt6NW2d38lL3-7" target="Y2bQKwDbrt6NW2d38lL3-10">
          <mxGeometry relative="1" as="geometry" />
        </mxCell>
        <mxCell id="Y2bQKwDbrt6NW2d38lL3-7" value="GLContext" style="rounded=1;whiteSpace=wrap;html=1;fontFamily=Montserrat;fontSource=https%3A%2F%2Ffonts.googleapis.com%2Fcss%3Ffamily%3DMontserrat;absoluteArcSize=1;arcSize=8;fillColor=#e1d5e7;strokeColor=#9673a6;" vertex="1" parent="1">
          <mxGeometry x="890" y="1410" width="100" height="30" as="geometry" />
        </mxCell>
        <mxCell id="Y2bQKwDbrt6NW2d38lL3-9" value="moderngl.VertexArray" style="rounded=1;whiteSpace=wrap;html=1;fontFamily=Montserrat;fontSource=https%3A%2F%2Ffonts.googleapis.com%2Fcss%3Ffamily%3DMontserrat;absoluteArcSize=1;arcSize=8;fillColor=#f5f5f5;strokeColor=#666666;fontColor=#333333;" vertex="1" parent="1">
          <mxGeometry x="1090" y="1370" width="150" height="30" as="geometry" />
        </mxCell>
        <mxCell id="Y2bQKwDbrt6NW2d38lL3-10" value="moderngl.FrameBuffer" style="rounded=1;whiteSpace=wrap;html=1;fontFamily=Montserrat;fontSource=https%3A%2F%2Ffonts.googleapis.com%2Fcss%3Ffamily%3DMontserrat;absoluteArcSize=1;arcSize=8;fillColor=#f5f5f5;strokeColor=#666666;fontColor=#333333;" vertex="1" parent="1">
          <mxGeometry x="1090" y="1410" width="150" height="30" as="geometry" />
        </mxCell>
        <mxCell id="R9BmD2qJ_qBXM_pwWLiC-1" value="blit" style="edgeStyle=elbowEdgeStyle;shape=connector;rounded=0;orthogonalLoop=1;jettySize=auto;html=1;labelBackgroundColor=default;strokeColor=default;fontFamily=Montserrat;fontSource=https%3A%2F%2Ffonts.googleapis.com%2Fcss%3Ffamily%3DMontserrat;fontSize=11;fontColor=default;endArrow=classic;" edge="1" parent="1" source="Y2bQKwDbrt6NW2d38lL3-18" target="Y2bQKwDbrt6NW2d38lL3-21">
          <mxGeometry relative="1" as="geometry" />
        </mxCell>
        <mxCell id="Y2bQKwDbrt6NW2d38lL3-18" value="Render&lt;br&gt;System" style="rounded=1;whiteSpace=wrap;html=1;fontFamily=Montserrat;fontSource=https%3A%2F%2Ffonts.googleapis.com%2Fcss%3Ffamily%3DMontserrat;absoluteArcSize=1;arcSize=8;fillColor=#fff2cc;strokeColor=#d6b656;dashed=1;" vertex="1" parent="1">
          <mxGeometry x="670" y="1060" width="100" height="110" as="geometry" />
        </mxCell>
        <mxCell id="Y2bQKwDbrt6NW2d38lL3-22" value="&amp;nbsp;renderer&amp;nbsp;" style="edgeStyle=elbowEdgeStyle;shape=connector;rounded=0;orthogonalLoop=1;jettySize=auto;elbow=vertical;html=1;labelBackgroundColor=default;strokeColor=default;fontFamily=Montserrat;fontSource=https%3A%2F%2Ffonts.googleapis.com%2Fcss%3Ffamily%3DMontserrat;fontSize=11;fontColor=default;endArrow=classic;" edge="1" parent="1" source="Y2bQKwDbrt6NW2d38lL3-20" target="Y2bQKwDbrt6NW2d38lL3-21">
          <mxGeometry relative="1" as="geometry" />
        </mxCell>
        <mxCell id="Y2bQKwDbrt6NW2d38lL3-20" value="Render&lt;br&gt;Manager" style="rounded=1;whiteSpace=wrap;html=1;fontFamily=Montserrat;fontSource=https%3A%2F%2Ffonts.googleapis.com%2Fcss%3Ffamily%3DMontserrat;absoluteArcSize=1;arcSize=8;fillColor=#ffe6cc;strokeColor=#d79b00;" vertex="1" parent="1">
          <mxGeometry x="450" y="1250" width="100" height="110" as="geometry" />
        </mxCell>
        <mxCell id="Y2bQKwDbrt6NW2d38lL3-21" value="Renderer" style="rounded=1;whiteSpace=wrap;html=1;fontFamily=Montserrat;fontSource=https%3A%2F%2Ffonts.googleapis.com%2Fcss%3Ffamily%3DMontserrat;absoluteArcSize=1;arcSize=8;fillColor=#dae8fc;strokeColor=#6c8ebf;" vertex="1" parent="1">
          <mxGeometry x="670" y="1250" width="100" height="110" as="geometry" />
        </mxCell>
        <mxCell id="R9BmD2qJ_qBXM_pwWLiC-3" value="" style="shape=connector;rounded=0;orthogonalLoop=1;jettySize=auto;html=1;labelBackgroundColor=default;strokeColor=default;fontFamily=Montserrat;fontSource=https%3A%2F%2Ffonts.googleapis.com%2Fcss%3Ffamily%3DMontserrat;fontSize=11;fontColor=default;endArrow=oval;endFill=1;" edge="1" parent="1" source="R9BmD2qJ_qBXM_pwWLiC-2" target="Y2bQKwDbrt6NW2d38lL3-18">
          <mxGeometry relative="1" as="geometry" />
        </mxCell>
        <mxCell id="R9BmD2qJ_qBXM_pwWLiC-2" value="for each Renderable component, update and blit its surface" style="shape=note2;boundedLbl=1;whiteSpace=wrap;html=1;size=11;verticalAlign=top;align=center;strokeColor=default;strokeWidth=1;fontFamily=Montserrat;fontSource=https%3A%2F%2Ffonts.googleapis.com%2Fcss%3Ffamily%3DMontserrat;fontSize=10;fontColor=default;fillColor=default;" vertex="1" parent="1">
          <mxGeometry x="800" y="1080" width="120" height="70" as="geometry" />
        </mxCell>
        <mxCell id="R9BmD2qJ_qBXM_pwWLiC-5" style="shape=connector;rounded=0;orthogonalLoop=1;jettySize=auto;html=1;labelBackgroundColor=default;strokeColor=default;fontFamily=Montserrat;fontSource=https%3A%2F%2Ffonts.googleapis.com%2Fcss%3Ffamily%3DMontserrat;fontSize=11;fontColor=default;endArrow=oval;endFill=1;" edge="1" parent="1" source="R9BmD2qJ_qBXM_pwWLiC-4" target="Y2bQKwDbrt6NW2d38lL3-21">
          <mxGeometry relative="1" as="geometry" />
        </mxCell>
        <mxCell id="R9BmD2qJ_qBXM_pwWLiC-4" value="for each group in surfaces list, if group is in render queue, execute render function" style="shape=note2;boundedLbl=1;whiteSpace=wrap;html=1;size=11;verticalAlign=top;align=center;strokeColor=default;strokeWidth=1;fontFamily=Montserrat;fontSource=https%3A%2F%2Ffonts.googleapis.com%2Fcss%3Ffamily%3DMontserrat;fontSize=10;fontColor=default;fillColor=default;" vertex="1" parent="1">
          <mxGeometry x="800" y="1265" width="150" height="80" as="geometry" />
        </mxCell>
        <mxCell id="R9BmD2qJ_qBXM_pwWLiC-7" style="shape=connector;rounded=0;orthogonalLoop=1;jettySize=auto;elbow=vertical;html=1;labelBackgroundColor=default;strokeColor=default;fontFamily=Montserrat;fontSource=https%3A%2F%2Ffonts.googleapis.com%2Fcss%3Ffamily%3DMontserrat;fontSize=11;fontColor=default;endArrow=oval;endFill=1;" edge="1" parent="1" source="R9BmD2qJ_qBXM_pwWLiC-6" target="R9BmD2qJ_qBXM_pwWLiC-4">
          <mxGeometry relative="1" as="geometry" />
        </mxCell>
        <mxCell id="R9BmD2qJ_qBXM_pwWLiC-6" value="by default, this is the BlitFunction that blits each source surface to a target surface, organized by render group" style="shape=note2;boundedLbl=1;whiteSpace=wrap;html=1;size=11;verticalAlign=top;align=center;strokeColor=default;strokeWidth=1;fontFamily=Montserrat;fontSource=https%3A%2F%2Ffonts.googleapis.com%2Fcss%3Ffamily%3DMontserrat;fontSize=10;fontColor=default;fillColor=default;" vertex="1" parent="1">
          <mxGeometry x="980" y="1260" width="150" height="90" as="geometry" />
        </mxCell>
        <mxCell id="R9BmD2qJ_qBXM_pwWLiC-8" value="PRE_UPDATE" style="shape=crossbar;whiteSpace=wrap;html=1;rounded=1;direction=south;strokeColor=default;strokeWidth=1;fontFamily=Montserrat;fontSource=https%3A%2F%2Ffonts.googleapis.com%2Fcss%3Ffamily%3DMontserrat;fontSize=11;fontColor=default;fillColor=default;horizontal=0;labelPosition=center;verticalLabelPosition=middle;align=center;verticalAlign=bottom;spacingBottom=13;" vertex="1" parent="1">
          <mxGeometry x="70" y="220" width="20" height="110" as="geometry" />
        </mxCell>
        <mxCell id="R9BmD2qJ_qBXM_pwWLiC-10" value="UPDATE" style="shape=crossbar;whiteSpace=wrap;html=1;rounded=1;direction=south;strokeColor=default;strokeWidth=1;fontFamily=Montserrat;fontSource=https%3A%2F%2Ffonts.googleapis.com%2Fcss%3Ffamily%3DMontserrat;fontSize=11;fontColor=default;fillColor=default;horizontal=0;labelPosition=center;verticalLabelPosition=middle;align=center;verticalAlign=bottom;spacingBottom=13;" vertex="1" parent="1">
          <mxGeometry x="70" y="350" width="20" height="110" as="geometry" />
        </mxCell>
        <mxCell id="R9BmD2qJ_qBXM_pwWLiC-11" value="POST_UPDATE" style="shape=crossbar;whiteSpace=wrap;html=1;rounded=1;direction=south;strokeColor=default;strokeWidth=1;fontFamily=Montserrat;fontSource=https%3A%2F%2Ffonts.googleapis.com%2Fcss%3Ffamily%3DMontserrat;fontSize=11;fontColor=default;fillColor=default;horizontal=0;labelPosition=center;verticalLabelPosition=middle;align=center;verticalAlign=bottom;spacingBottom=13;" vertex="1" parent="1">
          <mxGeometry x="70" y="480" width="20" height="190" as="geometry" />
        </mxCell>
        <mxCell id="R9BmD2qJ_qBXM_pwWLiC-14" value="ECSManager &amp;gt; PRE_UPDATE" style="rounded=1;whiteSpace=wrap;html=1;fontFamily=Montserrat;fontSource=https%3A%2F%2Ffonts.googleapis.com%2Fcss%3Ffamily%3DMontserrat;absoluteArcSize=1;arcSize=8;fillColor=#ffe6cc;strokeColor=#d79b00;" vertex="1" parent="1">
          <mxGeometry x="100" y="300" width="310" height="30" as="geometry" />
        </mxCell>
        <mxCell id="R9BmD2qJ_qBXM_pwWLiC-15" value="ECSManager &amp;gt; UPDATE" style="rounded=1;whiteSpace=wrap;html=1;fontFamily=Montserrat;fontSource=https%3A%2F%2Ffonts.googleapis.com%2Fcss%3Ffamily%3DMontserrat;absoluteArcSize=1;arcSize=8;fillColor=#ffe6cc;strokeColor=#d79b00;" vertex="1" parent="1">
          <mxGeometry x="100" y="430" width="310" height="30" as="geometry" />
        </mxCell>
        <mxCell id="R9BmD2qJ_qBXM_pwWLiC-16" value="ECSManager &amp;gt; POST_UPDATE" style="rounded=1;whiteSpace=wrap;html=1;fontFamily=Montserrat;fontSource=https%3A%2F%2Ffonts.googleapis.com%2Fcss%3Ffamily%3DMontserrat;absoluteArcSize=1;arcSize=8;fillColor=#ffe6cc;strokeColor=#d79b00;" vertex="1" parent="1">
          <mxGeometry x="100" y="640" width="310" height="30" as="geometry" />
        </mxCell>
        <mxCell id="R9BmD2qJ_qBXM_pwWLiC-18" value="" style="group" vertex="1" connectable="0" parent="1">
          <mxGeometry x="100" y="390" width="470" height="30" as="geometry" />
        </mxCell>
        <mxCell id="njJQ0EzZRr9ED-4JYnl1-8" value="RenderManager" style="rounded=1;whiteSpace=wrap;html=1;fontFamily=Montserrat;fontSource=https%3A%2F%2Ffonts.googleapis.com%2Fcss%3Ffamily%3DMontserrat;absoluteArcSize=1;arcSize=8;fillColor=#ffe6cc;strokeColor=#d79b00;" parent="R9BmD2qJ_qBXM_pwWLiC-18" vertex="1">
          <mxGeometry width="310" height="30" as="geometry" />
        </mxCell>
        <mxCell id="cY_B4P1_SqbaMyudtBFb-6" value="Renderer" style="rounded=1;whiteSpace=wrap;html=1;fontFamily=Montserrat;fontSource=https%3A%2F%2Ffonts.googleapis.com%2Fcss%3Ffamily%3DMontserrat;absoluteArcSize=1;arcSize=8;fillColor=#dae8fc;strokeColor=#6c8ebf;" parent="R9BmD2qJ_qBXM_pwWLiC-18" vertex="1">
          <mxGeometry x="320" width="150" height="30" as="geometry" />
        </mxCell>
        <mxCell id="R9BmD2qJ_qBXM_pwWLiC-19" value="" style="group" vertex="1" connectable="0" parent="1">
          <mxGeometry x="-50" y="-50" width="450" height="110" as="geometry" />
        </mxCell>
        <mxCell id="njJQ0EzZRr9ED-4JYnl1-9" value="Engine" style="rounded=1;whiteSpace=wrap;html=1;fontFamily=Montserrat;fontSource=https%3A%2F%2Ffonts.googleapis.com%2Fcss%3Ffamily%3DMontserrat;absoluteArcSize=1;arcSize=8;fillColor=#f8cecc;strokeColor=#b85450;" parent="R9BmD2qJ_qBXM_pwWLiC-19" vertex="1">
          <mxGeometry width="100" height="110" as="geometry" />
        </mxCell>
        <mxCell id="njJQ0EzZRr9ED-4JYnl1-10" value="EngineComponent" style="rounded=1;whiteSpace=wrap;html=1;fontFamily=Montserrat;fontSource=https%3A%2F%2Ffonts.googleapis.com%2Fcss%3Ffamily%3DMontserrat;absoluteArcSize=1;arcSize=8;fillColor=#ffe6cc;strokeColor=#d79b00;" parent="R9BmD2qJ_qBXM_pwWLiC-19" vertex="1">
          <mxGeometry x="300" width="150" height="110" as="geometry" />
        </mxCell>
        <mxCell id="njJQ0EzZRr9ED-4JYnl1-11" value="Emitter" style="rounded=1;whiteSpace=wrap;html=1;fontFamily=Montserrat;fontSource=https%3A%2F%2Ffonts.googleapis.com%2Fcss%3Ffamily%3DMontserrat;absoluteArcSize=1;arcSize=8;fillColor=#d5e8d4;strokeColor=#82b366;" parent="R9BmD2qJ_qBXM_pwWLiC-19" vertex="1">
          <mxGeometry x="150" y="40" width="100" height="30" as="geometry" />
        </mxCell>
        <mxCell id="njJQ0EzZRr9ED-4JYnl1-12" value="Logger" style="rounded=1;whiteSpace=wrap;html=1;fontFamily=Montserrat;fontSource=https%3A%2F%2Ffonts.googleapis.com%2Fcss%3Ffamily%3DMontserrat;absoluteArcSize=1;arcSize=8;fillColor=#dae8fc;strokeColor=#6c8ebf;" parent="R9BmD2qJ_qBXM_pwWLiC-19" vertex="1">
          <mxGeometry x="150" width="100" height="30" as="geometry" />
        </mxCell>
        <mxCell id="njJQ0EzZRr9ED-4JYnl1-19" style="edgeStyle=elbowEdgeStyle;shape=connector;rounded=0;orthogonalLoop=1;jettySize=auto;html=1;labelBackgroundColor=default;strokeColor=default;fontFamily=Helvetica;fontSize=11;fontColor=default;endArrow=oval;elbow=vertical;endFill=1;" parent="R9BmD2qJ_qBXM_pwWLiC-19" source="njJQ0EzZRr9ED-4JYnl1-9" target="njJQ0EzZRr9ED-4JYnl1-10" edge="1">
          <mxGeometry relative="1" as="geometry">
            <Array as="points">
              <mxPoint x="140" y="90" />
            </Array>
          </mxGeometry>
        </mxCell>
        <mxCell id="njJQ0EzZRr9ED-4JYnl1-22" style="edgeStyle=elbowEdgeStyle;shape=connector;rounded=0;orthogonalLoop=1;jettySize=auto;elbow=vertical;html=1;labelBackgroundColor=default;strokeColor=default;fontFamily=Helvetica;fontSize=11;fontColor=default;endArrow=oval;endFill=1;" parent="R9BmD2qJ_qBXM_pwWLiC-19" source="njJQ0EzZRr9ED-4JYnl1-9" target="njJQ0EzZRr9ED-4JYnl1-11" edge="1">
          <mxGeometry relative="1" as="geometry" />
        </mxCell>
        <mxCell id="njJQ0EzZRr9ED-4JYnl1-23" style="edgeStyle=elbowEdgeStyle;shape=connector;rounded=0;orthogonalLoop=1;jettySize=auto;elbow=vertical;html=1;labelBackgroundColor=default;strokeColor=default;fontFamily=Helvetica;fontSize=11;fontColor=default;endArrow=oval;endFill=1;" parent="R9BmD2qJ_qBXM_pwWLiC-19" source="njJQ0EzZRr9ED-4JYnl1-9" target="njJQ0EzZRr9ED-4JYnl1-12" edge="1">
          <mxGeometry relative="1" as="geometry" />
        </mxCell>
        <mxCell id="njJQ0EzZRr9ED-4JYnl1-24" style="edgeStyle=elbowEdgeStyle;shape=connector;rounded=0;orthogonalLoop=1;jettySize=auto;elbow=vertical;html=1;labelBackgroundColor=default;strokeColor=default;fontFamily=Helvetica;fontSize=11;fontColor=default;endArrow=oval;endFill=1;dashed=1;" parent="R9BmD2qJ_qBXM_pwWLiC-19" source="njJQ0EzZRr9ED-4JYnl1-10" target="njJQ0EzZRr9ED-4JYnl1-11" edge="1">
          <mxGeometry relative="1" as="geometry" />
        </mxCell>
        <mxCell id="njJQ0EzZRr9ED-4JYnl1-25" style="edgeStyle=elbowEdgeStyle;shape=connector;rounded=0;orthogonalLoop=1;jettySize=auto;elbow=vertical;html=1;labelBackgroundColor=default;strokeColor=default;fontFamily=Helvetica;fontSize=11;fontColor=default;endArrow=oval;endFill=1;dashed=1;" parent="R9BmD2qJ_qBXM_pwWLiC-19" source="njJQ0EzZRr9ED-4JYnl1-10" target="njJQ0EzZRr9ED-4JYnl1-12" edge="1">
          <mxGeometry relative="1" as="geometry" />
        </mxCell>
        <mxCell id="njJQ0EzZRr9ED-4JYnl1-7" value="WindowManager" style="rounded=1;whiteSpace=wrap;html=1;fontFamily=Montserrat;fontSource=https%3A%2F%2Ffonts.googleapis.com%2Fcss%3Ffamily%3DMontserrat;absoluteArcSize=1;arcSize=8;fillColor=#ffe6cc;strokeColor=#d79b00;" parent="1" vertex="1">
          <mxGeometry x="100" y="480" width="310" height="150" as="geometry" />
        </mxCell>
        <mxCell id="cY_B4P1_SqbaMyudtBFb-1" value="Window" style="rounded=1;whiteSpace=wrap;html=1;fontFamily=Montserrat;fontSource=https%3A%2F%2Ffonts.googleapis.com%2Fcss%3Ffamily%3DMontserrat;absoluteArcSize=1;arcSize=8;fillColor=#d5e8d4;strokeColor=#82b366;" parent="1" vertex="1">
          <mxGeometry x="420" y="480" width="150" height="150" as="geometry" />
        </mxCell>
        <mxCell id="cY_B4P1_SqbaMyudtBFb-2" value="Screen" style="rounded=1;whiteSpace=wrap;html=1;fontFamily=Montserrat;fontSource=https%3A%2F%2Ffonts.googleapis.com%2Fcss%3Ffamily%3DMontserrat;absoluteArcSize=1;arcSize=8;fillColor=#dae8fc;strokeColor=#6c8ebf;" parent="1" vertex="1">
          <mxGeometry x="580" y="480" width="150" height="110" as="geometry" />
        </mxCell>
        <mxCell id="cY_B4P1_SqbaMyudtBFb-3" value="FrameManager" style="rounded=1;whiteSpace=wrap;html=1;fontFamily=Montserrat;fontSource=https%3A%2F%2Ffonts.googleapis.com%2Fcss%3Ffamily%3DMontserrat;absoluteArcSize=1;arcSize=8;fillColor=#dae8fc;strokeColor=#6c8ebf;" parent="1" vertex="1">
          <mxGeometry x="580" y="600" width="150" height="30" as="geometry" />
        </mxCell>
        <mxCell id="FNdyg-D8nHnKbVSnXUow-2" value="pygame.Display" style="rounded=1;whiteSpace=wrap;html=1;fontFamily=Montserrat;fontSource=https%3A%2F%2Ffonts.googleapis.com%2Fcss%3Ffamily%3DMontserrat;absoluteArcSize=1;arcSize=8;fillColor=#f5f5f5;strokeColor=#666666;fontColor=#333333;" parent="1" vertex="1">
          <mxGeometry x="740" y="480" width="150" height="30" as="geometry" />
        </mxCell>
        <mxCell id="FNdyg-D8nHnKbVSnXUow-4" value="RenderObject" style="rounded=1;whiteSpace=wrap;html=1;fontFamily=Montserrat;fontSource=https%3A%2F%2Ffonts.googleapis.com%2Fcss%3Ffamily%3DMontserrat;absoluteArcSize=1;arcSize=8;fillColor=#e1d5e7;strokeColor=#9673a6;" parent="1" vertex="1">
          <mxGeometry x="740" y="520" width="150" height="70" as="geometry" />
        </mxCell>
        <mxCell id="FNdyg-D8nHnKbVSnXUow-6" value="GLContext" style="rounded=1;whiteSpace=wrap;html=1;fontFamily=Montserrat;fontSource=https%3A%2F%2Ffonts.googleapis.com%2Fcss%3Ffamily%3DMontserrat;absoluteArcSize=1;arcSize=8;fillColor=#e1d5e7;strokeColor=#9673a6;" parent="1" vertex="1">
          <mxGeometry x="900" y="520" width="150" height="30" as="geometry" />
        </mxCell>
        <mxCell id="FNdyg-D8nHnKbVSnXUow-8" value="moderngl.Context" style="rounded=1;whiteSpace=wrap;html=1;fontFamily=Montserrat;fontSource=https%3A%2F%2Ffonts.googleapis.com%2Fcss%3Ffamily%3DMontserrat;absoluteArcSize=1;arcSize=8;fillColor=#f5f5f5;strokeColor=#666666;fontColor=#333333;" parent="1" vertex="1">
          <mxGeometry x="1060" y="520" width="150" height="30" as="geometry" />
        </mxCell>
        <mxCell id="FNdyg-D8nHnKbVSnXUow-10" value="moderngl.Buffer" style="rounded=1;whiteSpace=wrap;html=1;fontFamily=Montserrat;fontSource=https%3A%2F%2Ffonts.googleapis.com%2Fcss%3Ffamily%3DMontserrat;absoluteArcSize=1;arcSize=8;fillColor=#f5f5f5;strokeColor=#666666;fontColor=#333333;" parent="1" vertex="1">
          <mxGeometry x="900" y="560" width="150" height="30" as="geometry" />
        </mxCell>
      </root>
    </mxGraphModel>
  </diagram>
  <diagram id="JHN9ziM1kesmDSF6B6-i" name="Page-2">
    <mxGraphModel dx="861" dy="109" grid="1" gridSize="10" guides="1" tooltips="1" connect="1" arrows="1" fold="1" page="0" pageScale="1" pageWidth="850" pageHeight="1100" math="0" shadow="0">
      <root>
        <mxCell id="0" />
        <mxCell id="1" parent="0" />
        <mxCell id="pkSxaPFccpYmEMOTBmXm-5" style="shape=connector;rounded=0;orthogonalLoop=1;jettySize=auto;elbow=vertical;html=1;labelBackgroundColor=default;strokeColor=default;fontFamily=Montserrat;fontSource=https%3A%2F%2Ffonts.googleapis.com%2Fcss%3Ffamily%3DMontserrat;fontSize=11;fontColor=default;endArrow=classic;startArrow=classic;startFill=1;" edge="1" parent="1" source="pkSxaPFccpYmEMOTBmXm-2" target="pkSxaPFccpYmEMOTBmXm-16">
          <mxGeometry relative="1" as="geometry">
            <mxPoint x="510" y="600" as="targetPoint" />
          </mxGeometry>
        </mxCell>
        <mxCell id="pkSxaPFccpYmEMOTBmXm-6" style="edgeStyle=none;shape=connector;rounded=0;orthogonalLoop=1;jettySize=auto;html=1;labelBackgroundColor=default;strokeColor=default;fontFamily=Montserrat;fontSource=https%3A%2F%2Ffonts.googleapis.com%2Fcss%3Ffamily%3DMontserrat;fontSize=11;fontColor=default;endArrow=classic;elbow=vertical;startArrow=none;startFill=0;" edge="1" parent="1" source="pkSxaPFccpYmEMOTBmXm-2" target="pkSxaPFccpYmEMOTBmXm-4">
          <mxGeometry relative="1" as="geometry" />
        </mxCell>
        <mxCell id="pkSxaPFccpYmEMOTBmXm-2" value="IDLE" style="rounded=1;whiteSpace=wrap;html=1;strokeColor=default;strokeWidth=1;fontFamily=Montserrat;fontSource=https%3A%2F%2Ffonts.googleapis.com%2Fcss%3Ffamily%3DMontserrat;fontSize=11;fontColor=default;fillColor=default;absoluteArcSize=1;arcSize=8;" vertex="1" parent="1">
          <mxGeometry x="550" y="450" width="100" height="30" as="geometry" />
        </mxCell>
        <mxCell id="pkSxaPFccpYmEMOTBmXm-7" style="edgeStyle=none;shape=connector;rounded=0;orthogonalLoop=1;jettySize=auto;html=1;labelBackgroundColor=default;strokeColor=default;fontFamily=Montserrat;fontSource=https%3A%2F%2Ffonts.googleapis.com%2Fcss%3Ffamily%3DMontserrat;fontSize=11;fontColor=default;endArrow=classic;elbow=vertical;startArrow=classic;startFill=1;" edge="1" parent="1" source="pkSxaPFccpYmEMOTBmXm-16" target="pkSxaPFccpYmEMOTBmXm-4">
          <mxGeometry relative="1" as="geometry">
            <mxPoint x="550" y="615" as="sourcePoint" />
          </mxGeometry>
        </mxCell>
        <mxCell id="pkSxaPFccpYmEMOTBmXm-10" style="edgeStyle=none;shape=connector;rounded=0;orthogonalLoop=1;jettySize=auto;html=1;labelBackgroundColor=default;strokeColor=default;fontFamily=Montserrat;fontSource=https%3A%2F%2Ffonts.googleapis.com%2Fcss%3Ffamily%3DMontserrat;fontSize=11;fontColor=default;endArrow=classic;elbow=vertical;" edge="1" parent="1" source="pkSxaPFccpYmEMOTBmXm-4" target="pkSxaPFccpYmEMOTBmXm-9">
          <mxGeometry relative="1" as="geometry" />
        </mxCell>
        <mxCell id="pkSxaPFccpYmEMOTBmXm-4" value="JUMP" style="rounded=1;whiteSpace=wrap;html=1;strokeColor=default;strokeWidth=1;fontFamily=Montserrat;fontSource=https%3A%2F%2Ffonts.googleapis.com%2Fcss%3Ffamily%3DMontserrat;fontSize=11;fontColor=default;fillColor=default;absoluteArcSize=1;arcSize=8;" vertex="1" parent="1">
          <mxGeometry x="550" y="610" width="100" height="30" as="geometry" />
        </mxCell>
        <mxCell id="pkSxaPFccpYmEMOTBmXm-11" style="edgeStyle=none;shape=connector;rounded=0;orthogonalLoop=1;jettySize=auto;html=1;labelBackgroundColor=default;strokeColor=default;fontFamily=Montserrat;fontSource=https%3A%2F%2Ffonts.googleapis.com%2Fcss%3Ffamily%3DMontserrat;fontSize=11;fontColor=default;endArrow=classic;elbow=vertical;" edge="1" parent="1" source="pkSxaPFccpYmEMOTBmXm-9" target="pkSxaPFccpYmEMOTBmXm-2">
          <mxGeometry relative="1" as="geometry" />
        </mxCell>
        <mxCell id="pkSxaPFccpYmEMOTBmXm-9" value="LAND" style="rounded=1;whiteSpace=wrap;html=1;strokeColor=default;strokeWidth=1;fontFamily=Montserrat;fontSource=https%3A%2F%2Ffonts.googleapis.com%2Fcss%3Ffamily%3DMontserrat;fontSize=11;fontColor=default;fillColor=default;absoluteArcSize=1;arcSize=8;" vertex="1" parent="1">
          <mxGeometry x="700" y="530" width="100" height="30" as="geometry" />
        </mxCell>
        <mxCell id="pkSxaPFccpYmEMOTBmXm-16" value="&lt;span style=&quot;font-weight: normal;&quot;&gt;MOVE&lt;/span&gt;" style="swimlane;whiteSpace=wrap;html=1;rounded=1;strokeColor=default;strokeWidth=1;fontFamily=Montserrat;fontSource=https%3A%2F%2Ffonts.googleapis.com%2Fcss%3Ffamily%3DMontserrat;fontSize=11;fontColor=default;fillColor=default;arcSize=8;absoluteArcSize=1;startSize=20;" vertex="1" parent="1">
          <mxGeometry x="110" y="520" width="340" height="210" as="geometry">
            <mxRectangle x="110" y="510" width="70" height="30" as="alternateBounds" />
          </mxGeometry>
        </mxCell>
        <mxCell id="pkSxaPFccpYmEMOTBmXm-17" value="UP_LEFT" style="edgeStyle=none;shape=connector;rounded=0;orthogonalLoop=1;jettySize=auto;html=1;labelBackgroundColor=default;strokeColor=default;fontFamily=Montserrat;fontSource=https%3A%2F%2Ffonts.googleapis.com%2Fcss%3Ffamily%3DMontserrat;fontSize=9;fontColor=default;endArrow=none;elbow=vertical;endFill=0;dashed=1;" edge="1" parent="pkSxaPFccpYmEMOTBmXm-16" source="pkSxaPFccpYmEMOTBmXm-14" target="pkSxaPFccpYmEMOTBmXm-12">
          <mxGeometry relative="1" as="geometry" />
        </mxCell>
        <mxCell id="pkSxaPFccpYmEMOTBmXm-18" value="UP_RIGHT" style="edgeStyle=none;shape=connector;rounded=0;orthogonalLoop=1;jettySize=auto;html=1;labelBackgroundColor=default;strokeColor=default;fontFamily=Montserrat;fontSource=https%3A%2F%2Ffonts.googleapis.com%2Fcss%3Ffamily%3DMontserrat;fontSize=9;fontColor=default;endArrow=none;elbow=vertical;endFill=0;dashed=1;labelBorderColor=none;" edge="1" parent="pkSxaPFccpYmEMOTBmXm-16" source="pkSxaPFccpYmEMOTBmXm-14" target="pkSxaPFccpYmEMOTBmXm-13">
          <mxGeometry relative="1" as="geometry" />
        </mxCell>
        <mxCell id="pkSxaPFccpYmEMOTBmXm-21" style="edgeStyle=none;shape=connector;rounded=0;orthogonalLoop=1;jettySize=auto;html=1;dashed=1;labelBackgroundColor=default;strokeColor=default;fontFamily=Montserrat;fontSource=https%3A%2F%2Ffonts.googleapis.com%2Fcss%3Ffamily%3DMontserrat;fontSize=11;fontColor=default;endArrow=none;endFill=0;elbow=vertical;" edge="1" parent="pkSxaPFccpYmEMOTBmXm-16" source="pkSxaPFccpYmEMOTBmXm-14" target="pkSxaPFccpYmEMOTBmXm-15">
          <mxGeometry relative="1" as="geometry" />
        </mxCell>
        <mxCell id="pkSxaPFccpYmEMOTBmXm-14" value="MOVE_UP" style="rounded=1;whiteSpace=wrap;html=1;strokeColor=default;strokeWidth=1;fontFamily=Montserrat;fontSource=https%3A%2F%2Ffonts.googleapis.com%2Fcss%3Ffamily%3DMontserrat;fontSize=11;fontColor=default;fillColor=default;absoluteArcSize=1;arcSize=8;" vertex="1" parent="pkSxaPFccpYmEMOTBmXm-16">
          <mxGeometry x="120" y="40" width="100" height="30" as="geometry" />
        </mxCell>
        <mxCell id="pkSxaPFccpYmEMOTBmXm-19" value="DOWN_LEFT" style="edgeStyle=none;shape=connector;rounded=0;orthogonalLoop=1;jettySize=auto;html=1;labelBackgroundColor=default;strokeColor=default;fontFamily=Montserrat;fontSource=https%3A%2F%2Ffonts.googleapis.com%2Fcss%3Ffamily%3DMontserrat;fontSize=9;fontColor=default;endArrow=none;elbow=vertical;endFill=0;dashed=1;" edge="1" parent="pkSxaPFccpYmEMOTBmXm-16" source="pkSxaPFccpYmEMOTBmXm-12" target="pkSxaPFccpYmEMOTBmXm-15">
          <mxGeometry relative="1" as="geometry" />
        </mxCell>
        <mxCell id="pkSxaPFccpYmEMOTBmXm-12" value="MOVE_LEFT" style="rounded=1;whiteSpace=wrap;html=1;strokeColor=default;strokeWidth=1;fontFamily=Montserrat;fontSource=https%3A%2F%2Ffonts.googleapis.com%2Fcss%3Ffamily%3DMontserrat;fontSize=11;fontColor=default;fillColor=default;absoluteArcSize=1;arcSize=8;" vertex="1" parent="pkSxaPFccpYmEMOTBmXm-16">
          <mxGeometry x="20" y="100" width="100" height="30" as="geometry" />
        </mxCell>
        <mxCell id="pkSxaPFccpYmEMOTBmXm-20" value="DOWN_RIGHT" style="edgeStyle=none;shape=connector;rounded=0;orthogonalLoop=1;jettySize=auto;html=1;labelBackgroundColor=default;strokeColor=default;fontFamily=Montserrat;fontSource=https%3A%2F%2Ffonts.googleapis.com%2Fcss%3Ffamily%3DMontserrat;fontSize=9;fontColor=default;endArrow=none;elbow=vertical;endFill=0;dashed=1;" edge="1" parent="pkSxaPFccpYmEMOTBmXm-16" source="pkSxaPFccpYmEMOTBmXm-13" target="pkSxaPFccpYmEMOTBmXm-15">
          <mxGeometry relative="1" as="geometry" />
        </mxCell>
        <mxCell id="pkSxaPFccpYmEMOTBmXm-22" style="edgeStyle=none;shape=connector;rounded=0;orthogonalLoop=1;jettySize=auto;html=1;dashed=1;labelBackgroundColor=default;strokeColor=default;fontFamily=Montserrat;fontSource=https%3A%2F%2Ffonts.googleapis.com%2Fcss%3Ffamily%3DMontserrat;fontSize=11;fontColor=default;endArrow=none;endFill=0;elbow=vertical;" edge="1" parent="pkSxaPFccpYmEMOTBmXm-16" source="pkSxaPFccpYmEMOTBmXm-13" target="pkSxaPFccpYmEMOTBmXm-12">
          <mxGeometry relative="1" as="geometry" />
        </mxCell>
        <mxCell id="pkSxaPFccpYmEMOTBmXm-13" value="MOVE_RIGHT" style="rounded=1;whiteSpace=wrap;html=1;strokeColor=default;strokeWidth=1;fontFamily=Montserrat;fontSource=https%3A%2F%2Ffonts.googleapis.com%2Fcss%3Ffamily%3DMontserrat;fontSize=11;fontColor=default;fillColor=default;absoluteArcSize=1;arcSize=8;" vertex="1" parent="pkSxaPFccpYmEMOTBmXm-16">
          <mxGeometry x="220" y="100" width="100" height="30" as="geometry" />
        </mxCell>
        <mxCell id="pkSxaPFccpYmEMOTBmXm-15" value="MOVE_DOWN" style="rounded=1;whiteSpace=wrap;html=1;strokeColor=default;strokeWidth=1;fontFamily=Montserrat;fontSource=https%3A%2F%2Ffonts.googleapis.com%2Fcss%3Ffamily%3DMontserrat;fontSize=11;fontColor=default;fillColor=default;absoluteArcSize=1;arcSize=8;" vertex="1" parent="pkSxaPFccpYmEMOTBmXm-16">
          <mxGeometry x="120" y="160" width="100" height="30" as="geometry" />
        </mxCell>
      </root>
    </mxGraphModel>
  </diagram>
  <diagram id="Dpm9HMqdCLUVq4nWJi24" name="Page-3">
    <mxGraphModel dx="-124" dy="0" grid="1" gridSize="10" guides="1" tooltips="1" connect="1" arrows="1" fold="1" page="0" pageScale="1" pageWidth="850" pageHeight="1100" math="0" shadow="0">
      <root>
        <mxCell id="0" />
        <mxCell id="1" parent="0" />
        <mxCell id="vuCPglOKEm4is-36MOKM-12" value="&lt;font face=&quot;Montserrat&quot;&gt;Position&lt;/font&gt;" style="swimlane;fontStyle=0;align=center;verticalAlign=middle;childLayout=stackLayout;horizontal=1;startSize=20;horizontalStack=0;resizeParent=1;resizeParentMax=0;resizeLast=0;collapsible=0;marginBottom=0;html=1;whiteSpace=wrap;fontSize=12;fontFamily=Fira Code;rounded=1;strokeColor=default;strokeWidth=1;fontSource=https%3A%2F%2Ffonts.googleapis.com%2Fcss%3Ffamily%3DMontserrat;fontColor=default;fillColor=default;absoluteArcSize=1;arcSize=8;" vertex="1" parent="1">
          <mxGeometry x="850" y="500" width="100" height="60" as="geometry" />
        </mxCell>
        <mxCell id="vuCPglOKEm4is-36MOKM-13" value="x: float" style="text;html=1;strokeColor=none;fillColor=none;align=left;verticalAlign=middle;spacingLeft=4;spacingRight=4;overflow=hidden;rotatable=0;points=[[0,0.5],[1,0.5]];portConstraint=eastwest;whiteSpace=wrap;fontSize=11;fontFamily=Montserrat;fontColor=default;" vertex="1" parent="vuCPglOKEm4is-36MOKM-12">
          <mxGeometry y="20" width="100" height="20" as="geometry" />
        </mxCell>
        <mxCell id="vuCPglOKEm4is-36MOKM-14" value="y: float" style="text;html=1;strokeColor=none;fillColor=none;align=left;verticalAlign=middle;spacingLeft=4;spacingRight=4;overflow=hidden;rotatable=0;points=[[0,0.5],[1,0.5]];portConstraint=eastwest;whiteSpace=wrap;fontSize=11;fontFamily=Montserrat;fontColor=default;" vertex="1" parent="vuCPglOKEm4is-36MOKM-12">
          <mxGeometry y="40" width="100" height="20" as="geometry" />
        </mxCell>
        <mxCell id="vuCPglOKEm4is-36MOKM-16" value="Controllable" style="rounded=1;whiteSpace=wrap;html=1;strokeColor=default;strokeWidth=1;fontFamily=Montserrat;fontSource=https%3A%2F%2Ffonts.googleapis.com%2Fcss%3Ffamily%3DMontserrat;fontSize=12;fontColor=default;startSize=20;fillColor=default;absoluteArcSize=1;arcSize=8;" vertex="1" parent="1">
          <mxGeometry x="850" y="470" width="100" height="20" as="geometry" />
        </mxCell>
        <mxCell id="vuCPglOKEm4is-36MOKM-17" value="&lt;font face=&quot;Montserrat&quot;&gt;Renderable&lt;/font&gt;" style="swimlane;fontStyle=0;align=center;verticalAlign=middle;childLayout=stackLayout;horizontal=1;startSize=20;horizontalStack=0;resizeParent=1;resizeParentMax=0;resizeLast=0;collapsible=0;marginBottom=0;html=1;whiteSpace=wrap;fontSize=12;fontFamily=Fira Code;rounded=1;strokeColor=default;strokeWidth=1;fontSource=https%3A%2F%2Ffonts.googleapis.com%2Fcss%3Ffamily%3DMontserrat;fontColor=default;fillColor=default;absoluteArcSize=1;arcSize=8;" vertex="1" parent="1">
          <mxGeometry x="960" y="470" width="150" height="140" as="geometry" />
        </mxCell>
        <mxCell id="vuCPglOKEm4is-36MOKM-18" value="foreground: Color" style="text;html=1;strokeColor=none;fillColor=none;align=left;verticalAlign=middle;spacingLeft=4;spacingRight=4;overflow=hidden;rotatable=0;points=[[0,0.5],[1,0.5]];portConstraint=eastwest;whiteSpace=wrap;fontSize=11;fontFamily=Montserrat;fontColor=default;" vertex="1" parent="vuCPglOKEm4is-36MOKM-17">
          <mxGeometry y="20" width="150" height="20" as="geometry" />
        </mxCell>
        <mxCell id="vuCPglOKEm4is-36MOKM-19" value="background: Color" style="text;html=1;strokeColor=none;fillColor=none;align=left;verticalAlign=middle;spacingLeft=4;spacingRight=4;overflow=hidden;rotatable=0;points=[[0,0.5],[1,0.5]];portConstraint=eastwest;whiteSpace=wrap;fontSize=11;fontFamily=Montserrat;fontColor=default;" vertex="1" parent="vuCPglOKEm4is-36MOKM-17">
          <mxGeometry y="40" width="150" height="20" as="geometry" />
        </mxCell>
        <mxCell id="vuCPglOKEm4is-36MOKM-20" value="width: int" style="text;html=1;strokeColor=none;fillColor=none;align=left;verticalAlign=middle;spacingLeft=4;spacingRight=4;overflow=hidden;rotatable=0;points=[[0,0.5],[1,0.5]];portConstraint=eastwest;whiteSpace=wrap;fontSize=11;fontFamily=Montserrat;fontColor=default;" vertex="1" parent="vuCPglOKEm4is-36MOKM-17">
          <mxGeometry y="60" width="150" height="20" as="geometry" />
        </mxCell>
        <mxCell id="vuCPglOKEm4is-36MOKM-21" value="height: int" style="text;html=1;strokeColor=none;fillColor=none;align=left;verticalAlign=middle;spacingLeft=4;spacingRight=4;overflow=hidden;rotatable=0;points=[[0,0.5],[1,0.5]];portConstraint=eastwest;whiteSpace=wrap;fontSize=11;fontFamily=Montserrat;fontColor=default;" vertex="1" parent="vuCPglOKEm4is-36MOKM-17">
          <mxGeometry y="80" width="150" height="20" as="geometry" />
        </mxCell>
        <mxCell id="vuCPglOKEm4is-36MOKM-22" value="alpha: bool" style="text;html=1;strokeColor=none;fillColor=none;align=left;verticalAlign=middle;spacingLeft=4;spacingRight=4;overflow=hidden;rotatable=0;points=[[0,0.5],[1,0.5]];portConstraint=eastwest;whiteSpace=wrap;fontSize=11;fontFamily=Montserrat;fontColor=default;" vertex="1" parent="vuCPglOKEm4is-36MOKM-17">
          <mxGeometry y="100" width="150" height="20" as="geometry" />
        </mxCell>
        <mxCell id="vuCPglOKEm4is-36MOKM-23" value="scale: float" style="text;html=1;strokeColor=none;fillColor=none;align=left;verticalAlign=middle;spacingLeft=4;spacingRight=4;overflow=hidden;rotatable=0;points=[[0,0.5],[1,0.5]];portConstraint=eastwest;whiteSpace=wrap;fontSize=11;fontFamily=Montserrat;fontColor=default;" vertex="1" parent="vuCPglOKEm4is-36MOKM-17">
          <mxGeometry y="120" width="150" height="20" as="geometry" />
        </mxCell>
        <mxCell id="vuCPglOKEm4is-36MOKM-24" value="&lt;font face=&quot;Montserrat&quot;&gt;Animatable&lt;/font&gt;" style="swimlane;fontStyle=0;align=center;verticalAlign=middle;childLayout=stackLayout;horizontal=1;startSize=20;horizontalStack=0;resizeParent=1;resizeParentMax=0;resizeLast=0;collapsible=0;marginBottom=0;html=1;whiteSpace=wrap;fontSize=12;fontFamily=Fira Code;rounded=1;strokeColor=default;strokeWidth=1;fontSource=https%3A%2F%2Ffonts.googleapis.com%2Fcss%3Ffamily%3DMontserrat;fontColor=default;fillColor=default;absoluteArcSize=1;arcSize=8;" vertex="1" parent="1">
          <mxGeometry x="1120" y="470" width="200" height="40" as="geometry" />
        </mxCell>
        <mxCell id="vuCPglOKEm4is-36MOKM-25" value="animations: dict[str, Animation]" style="text;html=1;strokeColor=none;fillColor=none;align=left;verticalAlign=middle;spacingLeft=4;spacingRight=4;overflow=hidden;rotatable=0;points=[[0,0.5],[1,0.5]];portConstraint=eastwest;whiteSpace=wrap;fontSize=11;fontFamily=Montserrat;fontColor=default;" vertex="1" parent="vuCPglOKEm4is-36MOKM-24">
          <mxGeometry y="20" width="200" height="20" as="geometry" />
        </mxCell>
        <mxCell id="vuCPglOKEm4is-36MOKM-30" value="&lt;font face=&quot;Montserrat&quot;&gt;Sprite&lt;/font&gt;" style="swimlane;fontStyle=0;align=center;verticalAlign=middle;childLayout=stackLayout;horizontal=1;startSize=20;horizontalStack=0;resizeParent=1;resizeParentMax=0;resizeLast=0;collapsible=0;marginBottom=0;html=1;whiteSpace=wrap;fontSize=12;fontFamily=Fira Code;rounded=1;strokeColor=default;strokeWidth=1;fontSource=https%3A%2F%2Ffonts.googleapis.com%2Fcss%3Ffamily%3DMontserrat;fontColor=default;fillColor=default;absoluteArcSize=1;arcSize=8;" vertex="1" parent="1">
          <mxGeometry x="1120" y="520" width="200" height="40" as="geometry" />
        </mxCell>
        <mxCell id="vuCPglOKEm4is-36MOKM-31" value="texture: pygame.Surface" style="text;html=1;strokeColor=none;fillColor=none;align=left;verticalAlign=middle;spacingLeft=4;spacingRight=4;overflow=hidden;rotatable=0;points=[[0,0.5],[1,0.5]];portConstraint=eastwest;whiteSpace=wrap;fontSize=11;fontFamily=Montserrat;fontColor=default;" vertex="1" parent="vuCPglOKEm4is-36MOKM-30">
          <mxGeometry y="20" width="200" height="20" as="geometry" />
        </mxCell>
      </root>
    </mxGraphModel>
  </diagram>
</mxfile>
